<svg xmlns="http://www.w3.org/2000/svg" width="64" height="64" viewBox="0 0 64 64">
  <g id="Сгруппировать_36" data-name="Сгруппировать 36" transform="translate(-985 -424)">
    <rect id="Прямоугольник_10" data-name="Прямоугольник 10" width="64" height="64" rx="15" transform="translate(985 424)" fill="#222"/>
    <g id="Сгруппировать_31" data-name="Сгруппировать 31" transform="translate(1006 445)">
      <path id="Контур_36" data-name="Контур 36" d="M22.572,6.39a7.942,7.942,0,0,0-.505-2.637,5.567,5.567,0,0,0-3.18-3.18A7.963,7.963,0,0,0,16.251.068C15.087.013,14.718,0,11.767,0S8.447.013,7.288.064A7.943,7.943,0,0,0,4.651.569,5.3,5.3,0,0,0,2.724,1.826,5.351,5.351,0,0,0,1.471,3.749,7.962,7.962,0,0,0,.966,6.386C.911,7.549.9,7.918.9,10.869s.013,3.32.064,4.479a7.942,7.942,0,0,0,.505,2.637,5.567,5.567,0,0,0,3.18,3.18,7.964,7.964,0,0,0,2.637.505c1.159.051,1.528.064,4.479.064s3.32-.013,4.479-.064a7.94,7.94,0,0,0,2.636-.505,5.559,5.559,0,0,0,3.18-3.18,7.968,7.968,0,0,0,.505-2.637c.051-1.159.064-1.528.064-4.479S22.623,7.549,22.572,6.39Zm-1.957,8.874a5.956,5.956,0,0,1-.374,2.017,3.605,3.605,0,0,1-2.063,2.064,5.979,5.979,0,0,1-2.017.373c-1.146.051-1.49.064-4.39.064s-3.248-.013-4.39-.064a5.955,5.955,0,0,1-2.017-.373,3.345,3.345,0,0,1-1.248-.811,3.38,3.38,0,0,1-.811-1.248,5.978,5.978,0,0,1-.373-2.017c-.051-1.146-.064-1.49-.064-4.39s.013-3.248.064-4.39a5.953,5.953,0,0,1,.373-2.017,3.3,3.3,0,0,1,.815-1.248,3.373,3.373,0,0,1,1.248-.811,5.982,5.982,0,0,1,2.017-.374c1.146-.051,1.49-.064,4.39-.064s3.248.013,4.39.064a5.956,5.956,0,0,1,2.017.374,3.342,3.342,0,0,1,1.248.811,3.378,3.378,0,0,1,.811,1.248,5.98,5.98,0,0,1,.374,2.017c.051,1.146.064,1.49.064,4.39S20.666,14.117,20.615,15.263Z" transform="translate(-0.898 0)" fill="#fff"/>
      <path id="Контур_37" data-name="Контур 37" d="M130.762,124.281a5.583,5.583,0,1,0,5.583,5.583A5.585,5.585,0,0,0,130.762,124.281Zm0,9.2a3.622,3.622,0,1,1,3.622-3.622A3.622,3.622,0,0,1,130.762,133.486Z" transform="translate(-119.893 -118.995)" fill="#fff"/>
      <path id="Контур_38" data-name="Контур 38" d="M364.868,89.749a1.3,1.3,0,1,1-1.3-1.3A1.3,1.3,0,0,1,364.868,89.749Z" transform="translate(-346.891 -84.684)" fill="#fff"/>
    </g>
  </g>
</svg>
