<svg xmlns="http://www.w3.org/2000/svg" width="27.937" height="16.297" viewBox="0 0 27.937 16.297">
  <path id="Контур_39" data-name="Контур 39" d="M23.183,116.012c-.452-.57-.322-.824,0-1.334.006-.006,3.734-5.158,4.119-6.905h0c.191-.637,0-1.1-.923-1.1H23.326a1.311,1.311,0,0,0-1.328.851,24.984,24.984,0,0,1-3.755,6.136c-.71.7-1.038.921-1.426.921-.191,0-.488-.224-.488-.86v-5.943c0-.764-.218-1.1-.861-1.1h-4.8a.731.731,0,0,0-.778.688c0,.724,1.1.891,1.214,2.928v4.42c0,.968-.176,1.147-.566,1.147-1.038,0-3.559-3.738-5.052-8.016-.3-.83-.6-1.165-1.379-1.165H1.048c-.872,0-1.048.4-1.048.851,0,.794,1.038,4.741,4.829,9.957,2.526,3.56,6.084,5.489,9.32,5.489,1.945,0,2.183-.428,2.183-1.165,0-3.4-.176-3.723.8-3.723.452,0,1.229.223,3.045,1.94,2.076,2.036,2.417,2.948,3.578,2.948h3.055c.871,0,1.312-.428,1.058-1.273C27.285,119.913,23.36,116.257,23.183,116.012Z" transform="translate(0 -106.667)" fill="#fff"/>
</svg>
