<svg xmlns="http://www.w3.org/2000/svg" xmlns:xlink="http://www.w3.org/1999/xlink" width="57.101" height="44.418" viewBox="0 0 57.101 44.418">
  <defs>
    <clipPath id="clip-path">
      <rect id="Прямоугольник_21" data-name="Прямоугольник 21" width="57.101" height="44.418" fill="none"/>
    </clipPath>
    <clipPath id="clip-path-3">
      <rect id="Прямоугольник_18" data-name="Прямоугольник 18" width="14.46" height="27.746" fill="none"/>
    </clipPath>
    <clipPath id="clip-path-4">
      <rect id="Прямоугольник_19" data-name="Прямоугольник 19" width="28.551" height="35.293" fill="none"/>
    </clipPath>
  </defs>
  <g id="Сгруппировать_62" data-name="Сгруппировать 62" clip-path="url(#clip-path)">
    <g id="Сгруппировать_61" data-name="Сгруппировать 61" transform="translate(0 0)">
      <g id="Сгруппировать_60" data-name="Сгруппировать 60" clip-path="url(#clip-path)">
        <path id="Контур_60" data-name="Контур 60" d="M14.891,101.411V98.471a1.744,1.744,0,0,0-1.618-1.861,1.764,1.764,0,0,0-.224,0,1.815,1.815,0,0,0-1.647.833,1.721,1.721,0,0,0-1.549-.833,1.548,1.548,0,0,0-1.372.7v-.578H7.461v4.685H8.49v-2.6a1.1,1.1,0,0,1,1.147-1.245c.676,0,1.02.441,1.02,1.235v2.608h1.029v-2.6a1.105,1.105,0,0,1,1.147-1.245c.7,0,1.029.441,1.029,1.235v2.608Zm15.232-4.685H28.457V95.3H27.428v1.421h-.951v.931h.951v2.137c0,1.088.421,1.735,1.627,1.735a2.394,2.394,0,0,0,1.275-.362l-.294-.873a1.886,1.886,0,0,1-.9.265c-.51,0-.676-.314-.676-.784V97.657h1.666Zm8.694-.118a1.382,1.382,0,0,0-1.235.686v-.568h-1.01v4.685h1.019V98.784c0-.774.333-1.206,1-1.206a1.653,1.653,0,0,1,.637.118l.314-.961A2.185,2.185,0,0,0,38.818,96.608Zm-13.144.49a3.507,3.507,0,0,0-1.912-.49c-1.186,0-1.95.568-1.95,1.5,0,.765.568,1.235,1.617,1.382l.48.069c.559.078.823.226.823.49,0,.363-.373.568-1.068.568a2.493,2.493,0,0,1-1.558-.49l-.48.794a3.382,3.382,0,0,0,2.029.608c1.353,0,2.137-.637,2.137-1.529,0-.823-.617-1.255-1.637-1.4l-.48-.069c-.441-.059-.794-.147-.794-.461,0-.343.333-.549.892-.549a3.024,3.024,0,0,1,1.46.4Zm27.308-.49a1.381,1.381,0,0,0-1.235.686v-.568h-1.01v4.685h1.019V98.784c0-.774.333-1.206,1-1.206a1.655,1.655,0,0,1,.637.118l.314-.961A2.185,2.185,0,0,0,52.981,96.608Zm-13.135,2.46a2.367,2.367,0,0,0,2.268,2.462q.115,0,.232,0a2.456,2.456,0,0,0,1.686-.559l-.49-.823a2.06,2.06,0,0,1-1.225.421,1.5,1.5,0,0,1,0-3,2.062,2.062,0,0,1,1.225.421l.49-.823a2.454,2.454,0,0,0-1.686-.559,2.367,2.367,0,0,0-2.5,2.229Q39.842,98.953,39.847,99.068Zm9.547,0V96.726H48.375v.568a1.777,1.777,0,0,0-1.48-.686,2.463,2.463,0,0,0,0,4.92,1.777,1.777,0,0,0,1.48-.686v.569h1.019Zm-3.793,0a1.409,1.409,0,1,1,0,.113c0-.038,0-.076,0-.113m-12.3-2.46a2.462,2.462,0,0,0,.069,4.921,2.849,2.849,0,0,0,1.921-.657l-.5-.755a2.235,2.235,0,0,1-1.363.49,1.3,1.3,0,0,1-1.4-1.147H35.5c.01-.127.019-.255.019-.392A2.246,2.246,0,0,0,33.3,96.608Zm-.02.912a1.164,1.164,0,0,1,1.186,1.137H32.035A1.206,1.206,0,0,1,33.279,97.52Zm25.573,1.548V94.844h-1.02v2.45a1.777,1.777,0,0,0-1.48-.686,2.463,2.463,0,0,0,0,4.921,1.778,1.778,0,0,0,1.48-.687v.569h1.02Zm1.7,1.664a.47.47,0,0,1,.185.036.485.485,0,0,1,.151.1.477.477,0,0,1,.1.148.458.458,0,0,1,0,.362.473.473,0,0,1-.1.147.488.488,0,0,1-.151.1.455.455,0,0,1-.185.037.473.473,0,0,1-.44-.285.461.461,0,0,1,.1-.51.465.465,0,0,1,.151-.1A.483.483,0,0,1,60.552,100.732Zm0,.829a.344.344,0,0,0,.141-.029.364.364,0,0,0,.114-.591.358.358,0,0,0-.114-.077.35.35,0,0,0-.141-.028.363.363,0,0,0-.143.028.348.348,0,0,0-.116.077.363.363,0,0,0,.116.591A.355.355,0,0,0,60.552,101.561Zm.028-.581a.2.2,0,0,1,.128.037.125.125,0,0,1,.045.1.117.117,0,0,1-.036.088.17.17,0,0,1-.1.043l.142.163h-.111l-.131-.162h-.042v.162H60.38v-.432Zm-.107.081v.115h.106a.1.1,0,0,0,.058-.014.05.05,0,0,0,.021-.044.048.048,0,0,0-.021-.043.108.108,0,0,0-.058-.014Zm-5.413-1.992a1.4,1.4,0,1,1,0,.113c0-.038,0-.076,0-.113m-34.424,0V96.726h-1.02v.568a1.777,1.777,0,0,0-1.48-.686,2.463,2.463,0,0,0,0,4.92,1.777,1.777,0,0,0,1.48-.686v.569h1.02Zm-3.793,0a1.4,1.4,0,1,1,0,.113C16.838,99.144,16.839,99.106,16.842,99.068Z" transform="translate(-4.503 -57.245)" fill="#fff"/>
        <g id="Сгруппировать_56" data-name="Сгруппировать 56" transform="translate(21.812 3.774)" opacity="0.7">
          <g id="Сгруппировать_55" data-name="Сгруппировать 55">
            <g id="Сгруппировать_54" data-name="Сгруппировать 54" clip-path="url(#clip-path-3)">
              <path id="Контур_61" data-name="Контур 61" d="M61.761,9.519a17.649,17.649,0,0,0,0,27.747h7.72V9.519Z" transform="translate(-55.021 -9.519)" fill="#fff"/>
            </g>
          </g>
        </g>
        <g id="Сгруппировать_59" data-name="Сгруппировать 59" opacity="0.5">
          <g id="Сгруппировать_58" data-name="Сгруппировать 58">
            <g id="Сгруппировать_57" data-name="Сгруппировать 57" clip-path="url(#clip-path-4)">
              <path id="Контур_62" data-name="Контур 62" d="M21.812,17.647a17.617,17.617,0,0,1,6.74-13.873,17.646,17.646,0,1,0,0,27.747,17.617,17.617,0,0,1-6.74-13.873" transform="translate(0 0)" fill="#fff"/>
            </g>
          </g>
        </g>
        <path id="Контур_63" data-name="Контур 63" d="M100.572,17.647a17.645,17.645,0,0,1-28.55,13.873,17.649,17.649,0,0,0,0-27.747,17.645,17.645,0,0,1,28.55,13.873Z" transform="translate(-43.471 0)" fill="#fff"/>
        <path id="Контур_64" data-name="Контур 64" d="M139.253,71.053v-.568h.229v-.116H138.9v.116h.23v.568Zm1.133,0v-.685h-.179l-.206.471-.206-.471h-.179v.685h.126v-.517l.193.445h.131l.193-.446v.518Z" transform="translate(-83.835 -42.472)" fill="#fff"/>
      </g>
    </g>
  </g>
</svg>
