<svg id="Сгруппировать_53" data-name="Сгруппировать 53" xmlns="http://www.w3.org/2000/svg" xmlns:xlink="http://www.w3.org/1999/xlink" width="70" height="22.655" viewBox="0 0 70 22.655">
  <defs>
    <clipPath id="clip-path">
      <rect id="Прямоугольник_17" data-name="Прямоугольник 17" width="70" height="22.655" fill="none"/>
    </clipPath>
    <clipPath id="clip-path-3">
      <rect id="Прямоугольник_15" data-name="Прямоугольник 15" width="13.766" height="11.922" fill="none"/>
    </clipPath>
  </defs>
  <g id="Сгруппировать_52" data-name="Сгруппировать 52" clip-path="url(#clip-path)">
    <path id="Контур_55" data-name="Контур 55" d="M64.1.976l-3.547,21.93h5.671L69.771.976Z" transform="translate(-35.891 -0.579)" fill="#fff"/>
    <g id="Сгруппировать_51" data-name="Сгруппировать 51" transform="translate(0 0)">
      <g id="Сгруппировать_50" data-name="Сгруппировать 50" clip-path="url(#clip-path)">
        <path id="Контур_56" data-name="Контур 56" d="M100.193.933A13.979,13.979,0,0,0,95.107,0c-5.6,0-9.543,2.986-9.567,7.255-.046,3.15,2.823,4.9,4.97,5.95,2.194,1.073,2.94,1.774,2.94,2.73-.022,1.469-1.773,2.146-3.405,2.146a11.287,11.287,0,0,1-5.321-1.166l-.747-.351-.793,4.923a17.254,17.254,0,0,0,6.324,1.167c5.95,0,9.824-2.94,9.869-7.489.023-2.5-1.493-4.41-4.76-5.973-1.983-1-3.2-1.68-3.2-2.706.023-.933,1.027-1.889,3.266-1.889a9.639,9.639,0,0,1,4.224.839l.513.233Z" transform="translate(-49.304 0)" fill="#fff"/>
        <path id="Контур_57" data-name="Контур 57" d="M130.685,15.137c.467-1.26,2.264-6.136,2.264-6.136-.024.047.466-1.283.746-2.1l.4,1.89s1.074,5.249,1.307,6.346Zm7-14.161H133.3a2.8,2.8,0,0,0-2.964,1.82l-8.423,20.11h5.95s.98-2.706,1.19-3.29h7.281c.163.77.676,3.29.676,3.29h5.25Z" transform="translate(-72.259 -0.578)" fill="#fff"/>
        <path id="Контур_58" data-name="Контур 58" d="M28.551.976,23,15.93,22.391,12.9a16.783,16.783,0,0,0-7.84-9.192l5.087,19.178h6L34.547.976Z" transform="translate(-8.625 -0.578)" fill="#fff"/>
        <g id="Сгруппировать_49" data-name="Сгруппировать 49" transform="translate(0 0.398)" opacity="0.7">
          <g id="Сгруппировать_48" data-name="Сгруппировать 48">
            <g id="Сгруппировать_47" data-name="Сгруппировать 47" clip-path="url(#clip-path-3)">
              <path id="Контур_59" data-name="Контур 59" d="M9.216.976H.093L0,1.419C7.116,3.239,11.83,7.626,13.766,12.9L11.783,2.819A2.346,2.346,0,0,0,9.216.976" transform="translate(0 -0.976)" fill="#fff"/>
            </g>
          </g>
        </g>
      </g>
    </g>
  </g>
</svg>
