<svg xmlns="http://www.w3.org/2000/svg" width="220.239" height="25" viewBox="0 0 220.239 25"><defs><style>.a{fill:#231f20;}</style></defs><path class="a" d="M47.907,33.312V13.876a.089.089,0,0,0-.089-.089H42.035a.089.089,0,0,1-.089-.089V9.211a.089.089,0,0,1,.089-.089H58.841a.1.1,0,0,1,.1.122l-.788,4.47a.089.089,0,0,1-.088.073H52.662a.089.089,0,0,0-.09.089V33.312a.089.089,0,0,1-.089.089H48A.089.089,0,0,1,47.907,33.312Z" transform="translate(4.157 -8.761)"/><path class="a" d="M104.559,33.4l-.06,0h-8.25a.1.1,0,0,1-.1-.122l.788-4.47a.089.089,0,0,1,.088-.073h7.563a2.792,2.792,0,1,0,0-5.584c-.072,0-.5-.013-.953-.028l-.451-.013a6.982,6.982,0,0,1-4.527-1.861,7.081,7.081,0,0,1-.58-.614,6.986,6.986,0,0,1-1.633-4.493,7.038,7.038,0,0,1,5.6-6.869l.172-.033a6.8,6.8,0,0,1,1.246-.12h23.509l-.812,4.6a.088.088,0,0,1-.088.073h-5.4a.089.089,0,0,0-.089.09V33.313a.089.089,0,0,1-.089.089H116a.089.089,0,0,1-.089-.089V13.886a.089.089,0,0,0-.09-.09h-12.3a2.406,2.406,0,0,0-2.351,1.818,2.349,2.349,0,0,0,.412,1.935,2.309,2.309,0,0,0,1.711.935c.389.023.755.028,1.049.031l.28,0a7.306,7.306,0,0,1,4.7,1.663,7.518,7.518,0,0,1,2.248,3.13,7.464,7.464,0,0,1-6.981,10.094Z" transform="translate(10.032 -8.761)"/><path class="a" d="M138.045,33.372l-3.636-4.835a.107.107,0,0,0-.083-.041h-3.541a.089.089,0,0,0-.089.089V33.4H126.12a.089.089,0,0,1-.089-.09V9.211a.089.089,0,0,1,.089-.09h8.067a9.687,9.687,0,0,1,4.651,18.186l-.059.032,4.323,5.9a.1.1,0,0,1-.084.165H138.1A.075.075,0,0,1,138.045,33.372ZM130.7,23.74a.089.089,0,0,0,.089.089h3.585a5.012,5.012,0,0,0,4.839-4.986,4.928,4.928,0,0,0-1.462-3.52,5.209,5.209,0,0,0-3.664-1.536h-3.3a.089.089,0,0,0-.089.09Z" transform="translate(13.272 -8.761)"/><rect class="a" width="4.666" height="24.279" rx="0.08" transform="translate(65.423 0.361)"/><path class="a" d="M25.267,33.311V9.211a.089.089,0,0,1,.089-.09h8.067A9.688,9.688,0,0,1,33.6,28.5H30.021a.089.089,0,0,0-.089.089v4.725a.089.089,0,0,1-.089.09H25.356A.089.089,0,0,1,25.267,33.311Zm4.665-9.579a.089.089,0,0,0,.089.089l3.586.008a5.011,5.011,0,0,0,4.838-4.986,4.928,4.928,0,0,0-1.462-3.52,5.209,5.209,0,0,0-3.664-1.536h-3.3a.089.089,0,0,0-.089.09Z" transform="translate(2.349 -8.761)"/><path class="a" d="M146.053,13.665l.788-4.47a.089.089,0,0,1,.088-.073h23.147a.089.089,0,0,1,.088.073l.788,4.47a.1.1,0,0,1-.1.122H146.155A.1.1,0,0,1,146.053,13.665Z" transform="translate(15.442 -8.761)"/><path class="a" d="M144.563,22.112l.789-4.469a.088.088,0,0,1,.088-.074h26.448a.088.088,0,0,1,.088.074l.789,4.469a.105.105,0,0,1-.1.123H144.666A.1.1,0,0,1,144.563,22.112Z" transform="translate(15.281 -7.845)"/><path class="a" d="M142.948,31.36l.788-4.469a.089.089,0,0,1,.088-.074h30.191a.09.09,0,0,1,.089.074l.788,4.469a.1.1,0,0,1-.1.122H143.05A.1.1,0,0,1,142.948,31.36Z" transform="translate(15.105 -6.842)"/><path class="a" d="M190.748,33.312V13.876a.089.089,0,0,0-.09-.089h-12.08a.089.089,0,0,0-.089.089V18.4a.089.089,0,0,0,.089.089h6.7a.089.089,0,0,1,.089.09v4.487a.089.089,0,0,1-.089.09h-6.7a.089.089,0,0,0-.089.089v5.407a.089.089,0,0,0,.089.089h8.956a.089.089,0,0,1,.088.073l.8,4.47a.1.1,0,0,1-.1.122h-14.4a.089.089,0,0,1-.089-.089V9.211a.089.089,0,0,1,.089-.089h27.77a.1.1,0,0,1,.1.122l-.8,4.47a.09.09,0,0,1-.089.073h-5.347a.089.089,0,0,0-.089.089V33.312a.089.089,0,0,1-.089.089h-4.539A.089.089,0,0,1,190.748,33.312Z" transform="translate(18.453 -8.761)"/><path class="a" d="M78.333,33.8A12.5,12.5,0,1,1,88.328,13.8a.106.106,0,0,1-.023.149l-3.744,2.7a.088.088,0,0,1-.122-.019A7.681,7.681,0,0,0,72.7,16.07a7.623,7.623,0,0,0-2.029,5.817,7.706,7.706,0,0,0,7.179,7.084c.162.01.326.016.488.016A7.716,7.716,0,0,0,84.486,25.9a.089.089,0,0,1,.122-.019l3.745,2.7a.1.1,0,0,1,.022.147A12.543,12.543,0,0,1,78.333,33.8Z" transform="translate(6.746 -8.796)"/><path class="a" d="M12.851,33.8A12.493,12.493,0,0,1,.652,18.58.107.107,0,0,1,.784,18.5l4.449,1.258a.089.089,0,0,1,.063.1,7.691,7.691,0,0,0,6.918,9.1c.212.017.427.025.637.025a7.7,7.7,0,0,0,5.682-2.514,7.622,7.622,0,0,0,1.975-5.9,8.057,8.057,0,0,0-7.061-6.94c-.2-.016-.4-.023-.6-.023a7.639,7.639,0,0,0-6,2.888.089.089,0,0,1-.115.021L2.765,14.122a.1.1,0,0,1-.031-.152A12.527,12.527,0,0,1,12.851,8.8h.063a12.5,12.5,0,0,1-.063,25Z" transform="translate(-0.352 -8.796)"/></svg>